# xmcd CD Database Entry
#
# Track frame offsets:
# 150
# 16172
# 37860
# 50422
# 65482
# 86192
# 99042
# 113212
# 131922
# 157655
#
# Disc length: 2439 seconds
#
# Revision: 3
# Processed by: cddbd v1.4PL0 Copyright (c) Steve Scherf et al.
# Submitted via: tcd 2.0b
#
DISCID=7209850a
DTITLE=Juvenators - Golden Hearts
DYEAR=1900
DGENRE=
TTITLE0=See Through Dress
TTITLE1=To Do With My Heart
TTITLE2=Wears Her Clothes
TTITLE3=Whole Damn World
TTITLE4=She Had A Good Thing
TTITLE5=Love Me 'Til It Hurts
TTITLE6=Huntin' For Fun
TTITLE7=Golden Hearts
TTITLE8=Running
TTITLE9='53 Buick
EXTD=
EXTT0=
EXTT1=
EXTT2=
EXTT3=
EXTT4=
EXTT5=
EXTT6=
EXTT7=
EXTT8=
EXTT9=
PLAYORDER=
